# File created by Blade
# Date/Time:  Tue Sep 30 19:07:45 2014
#---------------------------------------------------------
:version 1.10
:name HOM
:units
  mass 1.0
  length 1.000000
  angle deg
:documentation
     Acclaim Skeleton File
:root
   axis xyz
   order TX TY TZ RX RY RZ
   position 0.000000 0.000000 0.000000
   orientation 0 0 0
:bonedata
   begin
      id 1
      name Spine_dum
      direction 0.000000 1.000000 0.000000
      length 7.508948
      axis 0.0 0.0 0.0 xyz
   end
   begin
      id 2
      name LeftUpLeg_dum
      direction 1.000000 0.000000 0.000000
      length 3.000560
      axis 0.0 0.0 0.0 xyz
   end
   begin
      id 3
      name RightUpLeg_dum
      direction -1.000000 0.000000 0.000000
      length 3.000560
      axis 0.0 0.0 0.0 xyz
   end
   begin
      id 4
      name Spine
      direction 0.000000 1.000000 0.000000
      length 0.000000
      axis 0.0 0.0 0.0 xyz
      dof rx ry rz
   end
   begin
      id 5
      name Spine_dum1
      direction 0.000000 1.000000 0.000000
      length 13.861154
      axis 0.0 0.0 0.0 xyz
   end
   begin
      id 6
      name Spine_dum2
      direction 0.000000 1.000000 0.000000
      length 8.204781
      axis 0.0 0.0 0.0 xyz
   end
   begin
      id 7
      name Spine_dum3
      direction 0.000000 1.000000 0.000000
      length 8.204781
      axis 0.0 0.0 0.0 xyz
   end
   begin
      id 8
      name Head
      direction 0.000000 1.000000 0.000000
      length 4.527550
      axis 0.0 0.0 0.0 xyz
      dof rx ry rz
   end
   begin
      id 9
      name LeftShoulder
      direction 1.000000 0.000000 0.000000
      length 6.635956
      axis 0.0 0.0 -90.0 xyz
      dof rx ry rz
   end
   begin
      id 10
      name LeftArm
      direction 1.000000 0.000000 0.000000
      length 10.274218
      axis 0.0 0.0 -90.0 xyz
      dof rx ry rz
   end
   begin
      id 11
      name LeftForeArm
      direction 1.000000 0.000000 0.000000
      length 8.522147
      axis 0.0 0.0 -90.0 xyz
      dof ry rz rx
   end
   begin
      id 12
      name LeftHand
      direction 0.000000 0.000000 0.000000
      length 0.000000
      axis 0.0 0.0 -90.0 xyz
      dof rx ry rz
   end
   begin
      id 13
      name LeftHand_dum1
      direction 0.000000 0.000000 0.000000
      length 0.000000
      axis 0.0 0.0 -90.0 xyz
   end
   begin
      id 14
      name LeftHand_dum2
      direction 1.000000 0.000000 0.000000
      length 3.937000
      axis 0.0 0.0 -90.0 xyz
   end
   begin
      id 15
      name LeftHandThumb1
      direction 0.000000 0.000000 1.000000
      length 3.937000
      axis 0.0 0.0 -90.0 xyz
      dof rx rz ry
   end
   begin
      id 16
      name RightShoulder
      direction -1.000000 0.000000 0.000000
      length 6.635956
      axis 0.0 0.0 90.0 xyz
      dof rx ry rz
   end
   begin
      id 17
      name RightArm
      direction -1.000000 0.000000 0.000000
      length 10.274218
      axis 0.0 0.0 90.0 xyz
      dof rx ry rz
   end
   begin
      id 18
      name RightForeArm
      direction -1.000000 0.000000 0.000000
      length 8.522147
      axis 0.0 0.0 90.0 xyz
      dof ry rz rx
   end
   begin
      id 19
      name RightHand
      direction 0.000000 0.000000 0.000000
      length 0.000000
      axis 0.0 0.0 90.0 xyz
      dof rx ry rz
   end
   begin
      id 20
      name RightHand_dum1
      direction 0.000000 0.000000 0.000000
      length 0.000000
      axis 0.0 0.0 90.0 xyz
   end
   begin
      id 21
      name RightHand_dum2
      direction -1.000000 0.000000 0.000000
      length 3.937000
      axis 0.0 0.0 90.0 xyz
   end
   begin
      id 22
      name RightHandThumb1
      direction 0.000000 0.000000 1.000000
      length 3.937000
      axis 0.0 0.0 90.0 xyz
      dof rx rz ry
   end
   begin
      id 23
      name LeftUpLeg
      direction 0.000000 -1.000000 0.000000
      length 16.490845
      axis 0.0 0.0 0.0 xyz
      dof rx ry rz
   end
   begin
      id 24
      name LeftLeg
      direction 0.000000 -1.000000 0.000000
      length 14.556576
      axis 0.0 0.0 0.0 xyz
      dof rx ry rz
   end
   begin
      id 25
      name LeftFoot
      direction 0.000000 -0.258819 0.965926
      length 4.831116
      axis 15.0 0.0 0.0 xyz
      dof rx ry rz
   end
   begin
      id 26
      name LeftToeBase
      direction 0.000000 0.000000 1.000000
      length 2.952750
      axis 0.0 0.0 0.0 xyz
      dof rx ry rz
   end
   begin
      id 27
      name RightUpLeg
      direction 0.000000 -1.000000 0.000000
      length 16.490845
      axis 0.0 0.0 0.0 xyz
      dof rx ry rz
   end
   begin
      id 28
      name RightLeg
      direction 0.000000 -1.000000 0.000000
      length 14.556576
      axis 0.0 0.0 0.0 xyz
      dof rx ry rz
   end
   begin
      id 29
      name RightFoot
      direction 0.000000 -0.258819 0.965926
      length 4.831116
      axis 15.0 0.0 0.0 xyz
      dof rx ry rz
   end
   begin
      id 30
      name RightToeBase
      direction 0.000000 0.000000 1.000000
      length 2.952750
      axis 0.0 0.0 0.0 xyz
      dof rx ry rz
   end
:hierarchy
   begin
      root Spine_dum LeftUpLeg_dum RightUpLeg_dum
      Spine_dum Spine
      LeftUpLeg_dum LeftUpLeg
      RightUpLeg_dum RightUpLeg
      Spine Spine_dum1 Spine_dum2 Spine_dum3
      Spine_dum1 Head
      Spine_dum2 LeftShoulder
      Spine_dum3 RightShoulder
      LeftShoulder LeftArm
      LeftArm LeftForeArm
      LeftForeArm LeftHand
      LeftHand LeftHand_dum1 LeftHand_dum2
      LeftHand_dum1 LeftHandThumb1
      RightShoulder RightArm
      RightArm RightForeArm
      RightForeArm RightHand
      RightHand RightHand_dum1 RightHand_dum2
      RightHand_dum1 RightHandThumb1
      LeftUpLeg LeftLeg
      LeftLeg LeftFoot
      LeftFoot LeftToeBase
      RightUpLeg RightLeg
      RightLeg RightFoot
      RightFoot RightToeBase
   end

# File created by Blade
# Date/Time:  Thu Sep 25 19:36:54 2014
# Frame Rate: 120.000 fps
#------------------------------------------------------
:FULLY-SPECIFIED
:DEGREES
85
root -1.150551 32.752737 2.164379 12.286625 2.942214 -1.478690
Spine -10.423708 5.278175 -1.800840
Head -13.924709 -5.085908 13.979843
LeftShoulder -12.945297 18.203078 27.014229
LeftArm 19.278707 -20.071346 -33.279795
LeftForeArm 8.017993 -0.000000 13.842182
LeftHand -25.627298 -0.000000 -8.427741
LeftHandThumb1 -26.253704 0.000000 33.147579
RightShoulder -20.060304 12.300314 -36.949002
RightArm -7.705914 4.717435 37.086156
RightForeArm -29.321388 -0.000000 15.376362
RightHand -11.601239 -0.000000 6.194566
RightHandThumb1 -24.326973 -0.000000 -32.862282
LeftUpLeg -8.266836 0.668557 -1.286322
LeftLeg 1.314492 -0.000000 -0.000000
LeftFoot -11.757605 3.233130 -13.275561
LeftToeBase 9.239860 -0.000000 -0.000000
RightUpLeg -11.510597 -6.554774 -2.197795
RightLeg 7.328454 -0.000000 -0.000000
RightFoot -9.499407 -6.914358 4.448371
RightToeBase -0.665056 -0.000000 0.000000
86
root -1.119448 32.756660 2.149867 12.312498 2.855027 -1.542326
Spine -10.366198 5.346977 -1.869442
Head -13.824092 -5.157707 14.082866
LeftShoulder -12.845087 18.255353 26.954181
LeftArm 19.395583 -19.692052 -33.536204
LeftForeArm 7.826919 -0.000000 13.836646
LeftHand -25.675877 -0.000000 -8.705182
LeftHandThumb1 -26.253704 0.000000 33.147579
RightShoulder -20.039393 12.245608 -36.742734
RightArm -7.621438 4.607461 37.517712
RightForeArm -29.295455 -0.000000 15.361000
RightHand -11.525044 -0.000000 6.127765
RightHandThumb1 -24.326973 -0.000000 -32.862282
LeftUpLeg -8.349178 0.908807 -1.315487
LeftLeg 1.390293 -0.000000 -0.000000
LeftFoot -11.734950 3.070799 -13.228638
LeftToeBase 9.334259 -0.000000 -0.000000
RightUpLeg -11.699878 -6.569204 -2.179465
RightLeg 7.568539 -0.000000 -0.000000
RightFoot -9.455568 -6.838209 4.459248
RightToeBase -0.751689 -0.000000 0.000000
87
root -1.085661 32.759672 2.135608 12.330640 2.756795 -1.622077
Spine -10.299680 5.455605 -1.901824
Head -13.729827 -5.261195 14.113414
LeftShoulder -12.755279 18.284123 26.849053
LeftArm 19.570882 -19.318244 -33.786419
LeftForeArm 7.635400 0.000000 13.761048
LeftHand -25.559748 -0.000000 -8.933518
LeftHandThumb1 -26.253704 0.000000 33.147579
RightShoulder -20.025968 12.254002 -36.601641
RightArm -7.643863 4.419642 37.943735
RightForeArm -29.208950 -0.000000 15.439042
RightHand -11.487502 -0.000000 6.317023
RightHandThumb1 -24.326973 -0.000000 -32.862282
LeftUpLeg -8.387648 1.018959 -1.317348
LeftLeg 1.393452 -0.000000 -0.000000
LeftFoot -11.722061 3.059530 -13.214500
LeftToeBase 9.340076 -0.000000 -0.000000
RightUpLeg -11.886052 -6.535541 -2.155747
RightLeg 7.819290 -0.000000 -0.000000
RightFoot -9.428763 -6.786345 4.499256
RightToeBase -0.821619 -0.000000 0.000000
88
root -1.055404 32.762554 2.121859 12.335743 2.657320 -1.687571
Spine -10.212073 5.479790 -1.946277
Head -13.600778 -5.258988 14.154377
LeftShoulder -12.699428 18.295245 26.736498
LeftArm 19.653609 -18.965900 -34.020879
LeftForeArm 7.359571 0.000000 13.733399
LeftHand -25.489294 -0.000000 -9.271177
LeftHandThumb1 -26.253704 0.000000 33.147579
RightShoulder -19.944895 12.302159 -36.439866
RightArm -7.654556 4.267779 38.396005
RightForeArm -29.138861 -0.000000 15.463861
RightHand -11.503607 -0.000000 6.191512
RightHandThumb1 -24.326973 -0.000000 -32.862282
LeftUpLeg -8.416399 1.155481 -1.329481
LeftLeg 1.404216 -0.000000 -0.000000
LeftFoot -11.710151 3.006182 -13.220026
LeftToeBase 9.386043 -0.000000 -0.000000
RightUpLeg -12.053208 -6.451794 -2.143149
RightLeg 8.059057 -0.000000 -0.000000
RightFoot -9.409644 -6.827266 4.493464
RightToeBase -0.879692 -0.000000 0.000000
89
root -1.026206 32.766484 2.108862 12.331877 2.543911 -1.754474
Spine -10.119521 5.544820 -2.014315
Head -13.501984 -5.319591 14.242313
LeftShoulder -12.674834 18.407703 26.630221
LeftArm 19.927349 -18.733345 -34.365533
LeftForeArm 7.089602 -0.000000 13.612490
LeftHand -25.333295 0.000000 -9.346699
LeftHandThumb1 -26.253704 0.000000 33.147579
RightShoulder -19.874841 12.325033 -36.243685
RightArm -7.685919 4.241144 38.814732
RightForeArm -29.185909 -0.000000 15.581747
RightHand -11.592686 0.000000 6.536529
RightHandThumb1 -24.326973 -0.000000 -32.862282
LeftUpLeg -8.489454 1.466994 -1.361055
LeftLeg 1.526121 -0.000000 -0.000000
LeftFoot -11.699981 2.788600 -13.165763
LeftToeBase 9.415577 -0.000000 -0.000000
RightUpLeg -12.204410 -6.419740 -2.130742
RightLeg 8.279426 -0.000000 -0.000000
RightFoot -9.368384 -6.755147 4.505022
RightToeBase -0.924447 -0.000000 0.000000
90
root -0.997662 32.770510 2.091111 12.361287 2.502091 -1.842016
Spine -10.051556 5.564779 -2.009175
Head -13.401275 -5.365504 14.245858
LeftShoulder -12.588047 18.443530 26.469252
LeftArm 20.060968 -18.482655 -34.626316
LeftForeArm 6.877562 -0.000000 13.544287
LeftHand -25.094340 0.000000 -9.689516
LeftHandThumb1 -26.253704 0.000000 33.147579
RightShoulder -19.850604 12.295222 -36.078459
RightArm -7.615512 4.159708 39.238887
RightForeArm -29.231921 -0.000000 15.579369
RightHand -11.379906 -0.000000 6.440960
RightHandThumb1 -24.326973 -0.000000 -32.862282
LeftUpLeg -8.484403 1.099548 -1.282013
LeftLeg 1.392950 -0.000000 -0.000000
LeftFoot -11.711066 3.221548 -13.247267
LeftToeBase 9.379440 -0.000000 -0.000000
RightUpLeg -12.393399 -6.428246 -2.078066
RightLeg 8.509141 -0.000000 -0.000000
RightFoot -9.322893 -6.726393 4.522196
RightToeBase -1.021040 -0.000000 0.000000
91
root -0.968912 32.774044 2.080257 12.356282 2.443637 -1.922059
Spine -9.962149 5.628909 -2.034671
Head -13.318054 -5.487202 14.268518
LeftShoulder -12.497532 18.362893 26.377597
LeftArm 20.195211 -18.194491 -34.967514
LeftForeArm 6.753934 -0.000000 13.537721
LeftHand -25.244490 -0.000000 -9.992173
LeftHandThumb1 -26.253704 0.000000 33.147579
RightShoulder -19.847092 12.245245 -35.887049
RightArm -7.543733 4.029537 39.620806
RightForeArm -29.221424 -0.000000 15.589359
RightHand -11.320454 -0.000000 6.697678
RightHandThumb1 -24.326973 -0.000000 -32.862282
LeftUpLeg -8.476546 1.006502 -1.243094
LeftLeg 1.353652 -0.000000 -0.000000
LeftFoot -11.708711 3.369844 -13.282392
LeftToeBase 9.362698 -0.000000 -0.000000
RightUpLeg -12.543180 -6.422615 -2.042190
RightLeg 8.750310 -0.000000 -0.000000
RightFoot -9.302671 -6.679064 4.561656
RightToeBase -1.016057 -0.000000 0.000000
92
root -0.942866 32.778233 2.069754 12.349660 2.371554 -1.996824
Spine -9.864033 5.648751 -2.071796
Head -13.217290 -5.507854 14.310284
LeftShoulder -12.494400 18.477739 26.217800
LeftArm 20.433902 -18.009439 -35.326200
LeftForeArm 6.626491 -0.000000 13.557897
LeftHand -25.229978 -0.000000 -10.102735
LeftHandThumb1 -26.253704 0.000000 33.147579
RightShoulder -19.790077 12.364394 -35.722595
RightArm -7.637783 3.817409 40.005041
RightForeArm -29.319999 -0.000000 15.680898
RightHand -11.220104 0.000000 6.815534
RightHandThumb1 -24.326973 -0.000000 -32.862282
LeftUpLeg -8.490116 1.104511 -1.231141
LeftLeg 1.361968 -0.000000 -0.000000
LeftFoot -11.680682 3.342792 -13.275233
LeftToeBase 9.394224 -0.000000 -0.000000
RightUpLeg -12.684762 -6.408489 -2.006236
RightLeg 8.968476 -0.000000 -0.000000
RightFoot -9.255257 -6.636098 4.601006
RightToeBase -1.089083 -0.000000 0.000000
93
root -0.916433 32.782702 2.053118 12.361064 2.320597 -2.083989
Spine -9.772940 5.676788 -2.071255
Head -13.136933 -5.554699 14.318068
LeftShoulder -12.430515 18.454598 26.102962
LeftArm 20.561835 -17.786069 -35.745906
LeftForeArm 6.824067 0.000000 13.679887
LeftHand -25.208751 -0.000000 -10.185986
LeftHandThumb1 -26.253704 0.000000 33.147579
RightShoulder -19.763583 12.432911 -35.582823
RightArm -7.642950 3.658246 40.387379
RightForeArm -29.398660 -0.000000 15.644824
RightHand -11.167954 -0.000000 6.938059
RightHandThumb1 -24.326973 -0.000000 -32.862282
LeftUpLeg -8.549332 1.172668 -1.205527
LeftLeg 1.399648 -0.000000 -0.000000
LeftFoot -11.676997 3.341355 -13.268299
LeftToeBase 9.405874 -0.000000 -0.000000
RightUpLeg -12.850481 -6.379803 -1.956724
RightLeg 9.179556 -0.000000 -0.000000
RightFoot -9.200905 -6.630101 4.652270
RightToeBase -1.124274 -0.000000 0.000000
94
root -0.892129 32.787406 2.044682 12.366577 2.297924 -2.161128
Spine -9.701741 5.667101 -2.102239
Head -13.035613 -5.603169 14.390674
LeftShoulder -12.352637 18.353086 25.991118
LeftArm 20.604770 -17.426629 -36.030249
LeftForeArm 6.878533 -0.000000 13.729863
LeftHand -25.013423 -0.000000 -10.453191
LeftHandThumb1 -26.253704 0.000000 33.147579
RightShoulder -19.725845 12.401382 -35.376046
RightArm -7.594926 3.504650 40.781910
RightForeArm -29.394998 -0.000000 15.657872
RightHand -11.312254 -0.000000 6.887540
RightHandThumb1 -24.326973 -0.000000 -32.862282
LeftUpLeg -8.572265 1.214983 -1.180273
LeftLeg 1.401311 -0.000000 -0.000000
LeftFoot -11.643231 3.345226 -13.221141
LeftToeBase 9.433135 -0.000000 -0.000000
RightUpLeg -12.973244 -6.385281 -1.905859
RightLeg 9.348296 -0.000000 -0.000000
RightFoot -9.123981 -6.636551 4.639924
RightToeBase -1.235619 -0.000000 0.000000
95
root -0.873210 32.792214 2.036466 12.391395 2.260386 -2.250358
Spine -9.661591 5.666518 -2.135612
Head -12.924740 -5.644785 14.469880
LeftShoulder -12.258695 18.519882 25.838955
LeftArm 20.761885 -17.302968 -36.381776
LeftForeArm 6.816343 -0.000000 13.858359
LeftHand -25.083797 -0.000000 -10.874384
LeftHandThumb1 -26.253704 0.000000 33.147579
RightShoulder -19.699079 12.413760 -35.196709
RightArm -7.611549 3.389435 41.175408
RightForeArm -29.492730 -0.000000 15.687754
RightHand -11.211470 -0.000000 7.076703
RightHandThumb1 -24.326973 -0.000000 -32.862282
LeftUpLeg -8.607668 1.285793 -1.135894
LeftLeg 1.392424 -0.000000 -0.000000
LeftFoot -11.618686 3.310196 -13.255936
LeftToeBase 9.438398 -0.000000 -0.000000
RightUpLeg -13.131976 -6.351011 -1.828668
RightLeg 9.548554 -0.000000 -0.000000
RightFoot -9.075411 -6.714934 4.608868
RightToeBase -1.282015 -0.000000 0.000000
